<svg width="119" height="40" viewBox="0 0 119 40" fill="none" xmlns="http://www.w3.org/2000/svg">
<path d="M19.8702 0.833008C18.1234 6.95019 15.9399 13.2713 13.3197 20.0002C10.6995 26.7291 7.86099 33.2541 5.02246 39.1673C10.6861 35.5678 16.0842 31.6167 21.1803 27.3408C23.8004 25.0978 26.2023 23.0588 28.3858 21.0197C27.7076 23.1149 26.5848 25.0612 25.0843 26.7427C23.5838 28.4241 21.7363 29.8064 19.6518 30.8072C21.83 30.9676 23.9672 31.4493 25.9839 32.2345C29.7387 33.6921 32.9883 36.0916 35.3729 39.1673C34.6548 36.0283 33.6316 32.957 32.316 29.9916C31.8654 28.9749 31.2785 28.0156 30.5692 27.1369C33.0891 20.4093 36.9407 14.1841 41.9234 8.78535C35.0366 10.8148 28.6006 13.9927 22.927 18.165C20.2981 20.1817 17.8179 22.3616 15.5032 24.69C17.1989 20.4078 20.3413 16.7574 24.4555 14.2908C21.8603 10.185 20.2928 5.58436 19.8702 0.833008V0.833008Z" fill="white"/>
<path d="M0 14.699C4.16701 16.4651 7.77657 19.2039 10.4807 22.6514C11.4328 20.972 12.1659 19.1921 12.6642 17.3498C12.8826 16.5342 13.1009 15.9225 13.3193 15.1068L6.98716 14.4951C4.80367 14.4951 2.40184 14.4951 0 14.699Z" fill="white"/>
<path d="M49.5648 19.592C49.569 19.3818 49.5097 19.1748 49.3939 18.9945C49.2781 18.8142 49.1103 18.668 48.9098 18.5725C48.4457 18.3173 47.9197 18.177 47.3814 18.1646C47.0031 18.1115 46.6169 18.1836 46.2896 18.3686C46.0713 18.5725 45.8529 18.5725 45.6346 18.7764C45.4928 18.9528 45.4162 19.1675 45.4162 19.3881C45.4162 19.6087 45.4928 19.8233 45.6346 19.9998C45.6346 20.2037 45.8529 20.2037 46.0713 20.4076C46.1575 20.4847 46.261 20.543 46.3743 20.5782C46.4876 20.6135 46.6078 20.6248 46.7263 20.6115C46.9447 20.6115 47.163 20.8154 47.5997 20.8154L48.6914 21.0193C49.1281 21.2232 49.7832 21.2232 50.2199 21.4271C50.6114 21.5847 50.9785 21.7904 51.3116 22.0389C51.7146 22.2801 52.0214 22.6383 52.185 23.0584C52.3629 23.4437 52.4378 23.8635 52.4034 24.2818C52.431 24.6131 52.3872 24.9461 52.2747 25.2613C52.1622 25.5765 51.9832 25.8674 51.7483 26.117C51.5641 26.423 51.3136 26.6898 51.0129 26.9004C50.7121 27.1111 50.3677 27.2609 50.0015 27.3404C49.6478 27.6366 49.2327 27.8617 48.782 28.002C48.3313 28.1423 47.8546 28.1947 47.3814 28.156C46.49 28.1549 45.6048 28.0172 44.7612 27.7482C44.0937 27.459 43.4986 27.0422 43.0144 26.5248C42.5711 25.9267 42.3418 25.2129 42.3593 24.4857H44.9795C44.987 24.864 45.1423 25.2266 45.4162 25.5053C45.665 25.7571 45.961 25.9644 46.2896 26.117C46.7022 26.2831 47.1518 26.353 47.5997 26.3209C47.978 26.3741 48.3642 26.3019 48.6914 26.117C49.1281 25.9131 49.3465 25.9131 49.5648 25.7092C49.7832 25.5053 49.7832 25.3014 49.7832 24.8935C49.7975 24.7829 49.7853 24.6706 49.7475 24.5648C49.7098 24.459 49.6474 24.3624 49.5648 24.2818C49.3465 24.0779 49.1281 23.874 48.9098 23.874C48.6914 23.874 48.2548 23.6701 47.8181 23.4662L46.508 23.0584C45.5684 22.9551 44.7078 22.5168 44.1061 21.835C43.7949 21.5864 43.5528 21.271 43.4007 20.9158C43.2485 20.5607 43.1909 20.1764 43.2327 19.7959C43.2488 19.1366 43.477 18.4971 43.8878 17.9607C44.072 17.6547 44.3225 17.3879 44.6233 17.1773C44.924 16.9667 45.2684 16.8168 45.6346 16.7373C47.183 16.1945 48.8898 16.1945 50.4382 16.7373C50.7752 16.8206 51.0877 16.9739 51.3524 17.1857C51.617 17.3976 51.827 17.6625 51.9667 17.9607C52.3774 18.4971 52.6057 19.1366 52.6217 19.7959H49.5648V19.592ZM58.9538 19.1842V21.0193H53.2768V19.1842H58.9538ZM54.5869 17.1451H57.207V25.3014C57.1928 25.4121 57.205 25.5243 57.2427 25.6301C57.2805 25.7359 57.3429 25.8325 57.4254 25.9131C57.4254 25.9672 57.4484 26.019 57.4893 26.0573C57.5303 26.0955 57.5858 26.117 57.6437 26.117H58.7355L59.1722 27.9521C58.9538 27.9521 58.9538 27.9521 58.5171 28.156H57.6437C57.053 28.1891 56.4608 28.12 55.897 27.9521C55.4471 27.7994 55.0636 27.5128 54.8052 27.1365C54.532 26.7032 54.3817 26.2119 54.3685 25.7092V17.1451H54.5869ZM63.3208 28.156C62.8012 28.2044 62.2767 28.1344 61.7924 27.9521C61.3426 27.7994 60.959 27.5128 60.7006 27.1365C60.4274 26.7032 60.2771 26.2119 60.2639 25.7092C60.2295 25.2909 60.3044 24.871 60.4823 24.4857C60.6539 24.1214 60.9655 23.8303 61.3557 23.6701C61.7924 23.4662 62.0107 23.2623 62.4474 23.2623C62.86 23.0962 63.3096 23.0263 63.7575 23.0584C64.1942 23.0584 64.8492 22.8545 65.0676 22.8545C65.3055 22.8647 65.5389 22.792 65.7226 22.6506C65.941 22.6506 65.941 22.4467 65.941 22.2428C65.9378 22.085 65.8969 21.93 65.8213 21.7889C65.7458 21.6478 65.6375 21.5242 65.5043 21.4271C65.1584 21.2925 64.7873 21.2232 64.4125 21.2232C64.0378 21.2232 63.6667 21.2925 63.3208 21.4271C63.0511 21.6595 62.8291 21.9359 62.6658 22.2428L60.4823 21.631C60.6605 21.1401 60.8795 20.6628 61.1373 20.2037C61.5201 19.863 61.9634 19.587 62.4474 19.3881C63.0752 19.1558 63.7385 19.0182 64.4125 18.9803C64.9317 18.9474 65.4524 19.0169 65.941 19.1842C66.3777 19.3881 66.8144 19.3881 67.2511 19.7959C67.654 20.0372 67.9609 20.3954 68.1245 20.8154C68.3197 21.2677 68.3946 21.7575 68.3428 22.2428V28.156H65.941V26.9326C65.7226 27.1365 65.5043 27.5443 65.2859 27.7482C65.0452 27.9629 64.7409 28.105 64.4125 28.156H63.3208ZM64.1942 26.5248C64.5716 26.5565 64.9507 26.4857 65.2859 26.3209L65.941 25.7092C66.1147 25.4699 66.192 25.181 66.1593 24.8935V23.874C65.9917 23.8889 65.836 23.9616 65.7226 24.0779C65.5043 24.0779 65.5043 24.0779 65.2859 24.2818H64.4125C64.1942 24.2818 63.7575 24.4857 63.5392 24.4857C63.4266 24.4949 63.3212 24.5408 63.2413 24.6154C63.1615 24.69 63.1123 24.7885 63.1025 24.8935C63.0199 24.9741 62.9575 25.0708 62.9198 25.1765C62.882 25.2823 62.8698 25.3946 62.8841 25.5053C62.8873 25.663 62.9282 25.8181 63.0038 25.9592C63.0793 26.1003 63.1876 26.2238 63.3208 26.3209C63.5936 26.4448 63.8911 26.5142 64.1942 26.5248ZM70.7447 27.9521V19.1842H73.3648V20.6115C73.4147 20.3632 73.5178 20.1268 73.6678 19.9166C73.8179 19.7063 74.0119 19.5266 74.2382 19.3881C74.6366 19.1619 75.0844 19.0225 75.5483 18.9803H76.4217V21.2232H75.33C74.9526 21.1915 74.5735 21.2623 74.2382 21.4271C74.0199 21.6311 73.5832 21.835 73.5832 22.0389C73.3851 22.3445 73.3079 22.7052 73.3648 23.0584V27.9521H70.7447ZM77.7318 27.9521V16.3295H80.352V25.9131H85.8107V27.9521H77.7318ZM87.3392 27.9521V19.1842H89.9593V27.9521H87.3392ZM88.6492 18.1646C88.2125 18.1646 87.9942 17.9607 87.5575 17.7568C87.3276 17.532 87.1755 17.2478 87.1208 16.9412C87.124 16.7835 87.1649 16.6284 87.2405 16.4873C87.316 16.3462 87.4243 16.2226 87.5575 16.1256C87.8559 15.8698 88.2442 15.7247 88.6492 15.7178C89.0859 15.7178 89.3043 15.9217 89.741 16.1256C89.9709 16.3504 90.123 16.6346 90.1777 16.9412C90.1745 17.0989 90.1336 17.254 90.058 17.3951C89.9825 17.5362 89.8742 17.6598 89.741 17.7568C89.4426 18.0127 89.0543 18.1577 88.6492 18.1646ZM96.2914 31.4185C95.544 31.4 94.8055 31.262 94.108 31.0107C93.5327 30.8643 93.0067 30.5836 92.5795 30.1951C92.3881 30.0426 92.2315 29.8557 92.119 29.6455C92.0065 29.4353 91.9403 29.2062 91.9245 28.9717L94.3263 28.7678C94.3362 28.8728 94.3853 28.9713 94.4652 29.0459C94.545 29.1205 94.6505 29.1664 94.763 29.1756C94.9814 29.3795 95.1997 29.3795 95.4181 29.5834C95.6364 29.7873 96.0731 29.7873 96.2914 29.7873C96.7681 29.8138 97.2373 29.6677 97.6015 29.3795C97.8288 29.2597 98.0126 29.0792 98.1293 28.8612C98.246 28.6433 98.2903 28.3977 98.2566 28.156V26.5248H98.0382C97.8199 26.7287 97.8199 26.9326 97.6015 27.1365C97.3527 27.3884 97.0567 27.5957 96.7281 27.7482C96.3156 27.9143 95.866 27.9843 95.4181 27.9521C94.744 27.9142 94.0807 27.7766 93.4529 27.5443C92.8492 27.2282 92.385 26.7225 92.1428 26.117C91.7504 25.3569 91.5989 24.5079 91.7061 23.6701C91.7073 22.8377 91.8549 22.011 92.1428 21.2232C92.465 20.6653 92.9118 20.1786 93.4529 19.7959C94.0453 19.4694 94.7333 19.3266 95.4181 19.3881C95.866 19.3559 96.3156 19.4259 96.7281 19.592C97.0567 19.7445 97.3527 19.9518 97.6015 20.2037C97.7347 20.3008 97.843 20.4243 97.9186 20.5654C97.9941 20.7065 98.035 20.8616 98.0382 21.0193V19.592H100.658V28.156C100.686 28.4873 100.642 28.8203 100.53 29.1355C100.417 29.4507 100.238 29.7417 100.003 29.9912C99.5417 30.4484 99.0294 30.8585 98.4749 31.2146C98.0382 31.2146 97.1648 31.4185 96.2914 31.4185ZM96.2914 26.117C96.6697 26.1702 97.0559 26.098 97.3832 25.9131C97.6529 25.6807 97.8749 25.4043 98.0382 25.0975C98.2161 24.7122 98.291 24.2923 98.2566 23.874C98.3084 23.3887 98.2335 22.899 98.0382 22.4467C97.8749 22.1398 97.6529 21.8634 97.3832 21.631C97.0876 21.3715 96.6972 21.2271 96.2914 21.2271C95.8857 21.2271 95.4953 21.3715 95.1997 21.631C94.93 21.8634 94.708 22.1398 94.5447 22.4467C94.3668 22.8319 94.2919 23.2518 94.3263 23.6701C94.3263 24.0779 94.3263 24.6896 94.5447 24.8935C94.708 25.2004 94.93 25.4768 95.1997 25.7092C95.6364 25.9131 95.8547 26.117 96.2914 26.117ZM105.68 22.8545V27.9521H103.06V16.3295H105.68V20.8154H105.899C105.984 20.5535 106.124 20.3102 106.311 20.1001C106.499 19.8899 106.73 19.7171 106.991 19.592C107.528 19.3242 108.128 19.1842 108.737 19.1842C109.347 19.1842 109.947 19.3242 110.484 19.592C110.745 19.7171 110.976 19.8899 111.163 20.1001C111.351 20.3102 111.491 20.5535 111.576 20.8154C111.872 21.387 112.022 22.0154 112.013 22.6506V28.156H109.392V23.0584C109.425 22.837 109.402 22.6117 109.326 22.3999C109.25 22.1881 109.122 21.9957 108.953 21.8377C108.784 21.6797 108.578 21.5604 108.351 21.4892C108.124 21.418 107.883 21.3967 107.646 21.4271C107.209 21.4271 106.991 21.4271 106.772 21.631L106.117 22.2428C105.68 22.2428 105.68 22.4467 105.68 22.8545ZM118.781 19.1842V21.0193H113.104V19.1842H118.781ZM114.414 17.1451H117.035V25.3014C117.02 25.4121 117.032 25.5243 117.07 25.6301C117.108 25.7359 117.17 25.8325 117.253 25.9131C117.253 25.9672 117.276 26.019 117.317 26.0573C117.358 26.0955 117.413 26.117 117.471 26.117H118.563L119 27.9521C118.781 27.9521 118.781 27.9521 118.345 28.156H117.471C116.881 28.1891 116.288 28.12 115.724 27.9521C115.275 27.7994 114.891 27.5128 114.633 27.1365C114.36 26.7032 114.209 26.2119 114.196 25.7092V17.1451H114.414Z" fill="white"/>
</svg>
