<svg width="32" height="33" viewBox="0 0 32 33" fill="none" xmlns="http://www.w3.org/2000/svg">
<path d="M12 19.834C12.8284 19.834 13.5 19.1624 13.5 18.334C13.5 17.5056 12.8284 16.834 12 16.834C11.1716 16.834 10.5 17.5056 10.5 18.334C10.5 19.1624 11.1716 19.834 12 19.834Z" fill="#858584"/>
<path d="M20 19.834C20.8284 19.834 21.5 19.1624 21.5 18.334C21.5 17.5056 20.8284 16.834 20 16.834C19.1716 16.834 18.5 17.5056 18.5 18.334C18.5 19.1624 19.1716 19.834 20 19.834Z" fill="#858584"/>
<path fill-rule="evenodd" clip-rule="evenodd" d="M15.9927 10.3326C13.8249 10.3166 11.6678 10.6385 9.59914 11.2869C9.07213 11.452 8.51101 11.1587 8.34584 10.6317C8.18067 10.1047 8.474 9.54357 9.00101 9.3784C11.2656 8.66864 13.6269 8.31582 16.0001 8.3326C18.3732 8.31582 20.7345 8.66864 22.9991 9.3784C23.5261 9.54357 23.8195 10.1047 23.6543 10.6317C23.4891 11.1587 22.928 11.452 22.401 11.2869C20.3323 10.6385 18.1753 10.3166 16.0075 10.3326H15.9927Z" fill="#858584"/>
<path fill-rule="evenodd" clip-rule="evenodd" d="M8.34584 22.0352C8.51101 21.5082 9.07213 21.2148 9.59914 21.38C11.6678 22.0284 13.8249 22.3503 15.9927 22.3343H16.0075C18.1753 22.3503 20.3323 22.0284 22.401 21.38C22.928 21.2148 23.4891 21.5082 23.6543 22.0352C23.8195 22.5622 23.5261 23.1233 22.9991 23.2885C20.7345 23.9982 18.3732 24.3511 16.0001 24.3343C13.6269 24.3511 11.2656 23.9982 9.00101 23.2885C8.474 23.1233 8.18067 22.5622 8.34584 22.0352Z" fill="#858584"/>
<path fill-rule="evenodd" clip-rule="evenodd" d="M20.2195 5.14422C20.6499 4.90152 21.1546 4.82568 21.6373 4.93112C22.9549 5.21667 24.2448 5.61724 25.4924 6.12825C25.7732 6.23653 26.0254 6.40797 26.2294 6.62939C26.4357 6.85319 26.587 7.12186 26.6715 7.41416L30.9074 21.5585C31.0178 21.927 31.0204 22.3195 30.9147 22.6893C30.809 23.0592 30.5995 23.3911 30.3111 23.6456L30.3059 23.6501C28.2385 25.4491 25.4371 26.8107 22.2551 27.5907C21.8132 27.7033 21.3457 27.6595 20.9322 27.4666C20.5205 27.2744 20.1877 26.9462 19.9898 26.5375L18.4816 23.5459C18.2329 23.0527 18.4311 22.4514 18.9243 22.2028C19.4175 21.9541 20.0188 22.1524 20.2674 22.6455L21.7799 25.6455L21.781 25.6477C24.7189 24.9273 27.2131 23.6901 28.9931 22.1413L29.6495 22.8957L28.9879 22.1458C28.9897 22.1443 28.991 22.1422 28.9917 22.1399C28.9923 22.1376 28.9923 22.1352 28.9916 22.1329L24.7555 7.98766C24.752 7.98625 24.7485 7.98483 24.7449 7.98338C23.602 7.51449 22.4201 7.14713 21.2127 6.88553L21.2106 6.88506C21.2076 6.8844 21.2044 6.88487 21.2017 6.88638C21.1993 6.88774 21.1975 6.88985 21.1964 6.89238L20.2115 9.87205C20.0381 10.3964 19.4725 10.681 18.9481 10.5077C18.4238 10.3344 18.1392 9.76875 18.3125 9.24437L19.3029 6.24817C19.4624 5.78008 19.7887 5.3871 20.2195 5.14422Z" fill="#858584"/>
<path fill-rule="evenodd" clip-rule="evenodd" d="M10.7982 6.88638C10.7955 6.88487 10.7924 6.8844 10.7894 6.88506L10.7872 6.88553C9.57988 7.14713 8.39792 7.51449 7.25502 7.98338C7.25149 7.98483 7.24795 7.98625 7.24441 7.98766L3.00842 22.1326C3.00774 22.1349 3.00764 22.1376 3.00829 22.1399C3.00888 22.142 3.01 22.1438 3.01152 22.1454C4.79121 23.6923 7.2836 24.9279 10.2189 25.6477L10.22 25.6455L11.7325 22.6455C11.9812 22.1524 12.5825 21.9541 13.0756 22.2028C13.5688 22.4514 13.767 23.0527 13.5184 23.5459L12.0101 26.5375C11.8123 26.9462 11.4795 27.2744 11.0677 27.4666C10.6542 27.6595 10.1868 27.7033 9.74481 27.5907C6.56287 26.8107 3.76151 25.4491 1.69404 23.6501L1.68886 23.6456C1.40039 23.3911 1.19093 23.0592 1.08525 22.6893C0.979591 22.3196 0.982107 21.9272 1.09249 21.5588C1.09252 21.5587 1.09246 21.5589 1.09249 21.5588L5.32839 7.41418C5.41291 7.12188 5.56426 6.8532 5.77051 6.62939C5.97457 6.40796 6.22679 6.23652 6.5076 6.12825C7.75546 5.6171 9.04577 5.21644 10.3637 4.93089C10.8461 4.8258 11.3504 4.9017 11.7805 5.14422C12.2113 5.3871 12.5375 5.78009 12.697 6.24818L12.7 6.25685L13.6874 9.24437C13.8608 9.76875 13.5762 10.3344 13.0518 10.5077C12.5274 10.681 11.9618 10.3964 11.7885 9.87205L10.8036 6.89237C10.8025 6.88985 10.8006 6.88774 10.7982 6.88638Z" fill="#858584"/>
<path d="M12 19.834C12.8284 19.834 13.5 19.1624 13.5 18.334C13.5 17.5056 12.8284 16.834 12 16.834C11.1716 16.834 10.5 17.5056 10.5 18.334C10.5 19.1624 11.1716 19.834 12 19.834Z" fill="#858584"/>
<path d="M20 19.834C20.8284 19.834 21.5 19.1624 21.5 18.334C21.5 17.5056 20.8284 16.834 20 16.834C19.1716 16.834 18.5 17.5056 18.5 18.334C18.5 19.1624 19.1716 19.834 20 19.834Z" fill="#858584"/>
<path fill-rule="evenodd" clip-rule="evenodd" d="M15.9927 10.3326C13.8249 10.3166 11.6678 10.6385 9.59914 11.2869C9.07213 11.452 8.51101 11.1587 8.34584 10.6317C8.18067 10.1047 8.474 9.54357 9.00101 9.3784C11.2656 8.66864 13.6269 8.31582 16.0001 8.3326C18.3732 8.31582 20.7345 8.66864 22.9991 9.3784C23.5261 9.54357 23.8195 10.1047 23.6543 10.6317C23.4891 11.1587 22.928 11.452 22.401 11.2869C20.3323 10.6385 18.1753 10.3166 16.0075 10.3326H15.9927Z" fill="#858584"/>
<path fill-rule="evenodd" clip-rule="evenodd" d="M8.34584 22.0352C8.51101 21.5082 9.07213 21.2148 9.59914 21.38C11.6678 22.0284 13.8249 22.3503 15.9927 22.3343H16.0075C18.1753 22.3503 20.3323 22.0284 22.401 21.38C22.928 21.2148 23.4891 21.5082 23.6543 22.0352C23.8195 22.5622 23.5261 23.1233 22.9991 23.2885C20.7345 23.9982 18.3732 24.3511 16.0001 24.3343C13.6269 24.3511 11.2656 23.9982 9.00101 23.2885C8.474 23.1233 8.18067 22.5622 8.34584 22.0352Z" fill="#858584"/>
<path fill-rule="evenodd" clip-rule="evenodd" d="M20.2195 5.14422C20.6499 4.90152 21.1546 4.82568 21.6373 4.93112C22.9549 5.21667 24.2448 5.61724 25.4924 6.12825C25.7732 6.23653 26.0254 6.40797 26.2294 6.62939C26.4357 6.85319 26.587 7.12186 26.6715 7.41416L30.9074 21.5585C31.0178 21.927 31.0204 22.3195 30.9147 22.6893C30.809 23.0592 30.5995 23.3911 30.3111 23.6456L30.3059 23.6501C28.2385 25.4491 25.4371 26.8107 22.2551 27.5907C21.8132 27.7033 21.3457 27.6595 20.9322 27.4666C20.5205 27.2744 20.1877 26.9462 19.9898 26.5375L18.4816 23.5459C18.2329 23.0527 18.4311 22.4514 18.9243 22.2028C19.4175 21.9541 20.0188 22.1524 20.2674 22.6455L21.7799 25.6455L21.781 25.6477C24.7189 24.9273 27.2131 23.6901 28.9931 22.1413L29.6495 22.8957L28.9879 22.1458C28.9897 22.1443 28.991 22.1422 28.9917 22.1399C28.9923 22.1376 28.9923 22.1352 28.9916 22.1329L24.7555 7.98766C24.752 7.98625 24.7485 7.98483 24.7449 7.98338C23.602 7.51449 22.4201 7.14713 21.2127 6.88553L21.2106 6.88506C21.2076 6.8844 21.2044 6.88487 21.2017 6.88638C21.1993 6.88774 21.1975 6.88985 21.1964 6.89238L20.2115 9.87205C20.0381 10.3964 19.4725 10.681 18.9481 10.5077C18.4238 10.3344 18.1392 9.76875 18.3125 9.24437L19.3029 6.24817C19.4624 5.78008 19.7887 5.3871 20.2195 5.14422Z" fill="#858584"/>
<path fill-rule="evenodd" clip-rule="evenodd" d="M10.7982 6.88638C10.7955 6.88487 10.7924 6.8844 10.7894 6.88506L10.7872 6.88553C9.57988 7.14713 8.39792 7.51449 7.25502 7.98338C7.25149 7.98483 7.24795 7.98625 7.24441 7.98766L3.00842 22.1326C3.00774 22.1349 3.00764 22.1376 3.00829 22.1399C3.00888 22.142 3.01 22.1438 3.01152 22.1454C4.79121 23.6923 7.2836 24.9279 10.2189 25.6477L10.22 25.6455L11.7325 22.6455C11.9812 22.1524 12.5825 21.9541 13.0756 22.2028C13.5688 22.4514 13.767 23.0527 13.5184 23.5459L12.0101 26.5375C11.8123 26.9462 11.4795 27.2744 11.0677 27.4666C10.6542 27.6595 10.1868 27.7033 9.74481 27.5907C6.56287 26.8107 3.76151 25.4491 1.69404 23.6501L1.68886 23.6456C1.40039 23.3911 1.19093 23.0592 1.08525 22.6893C0.979591 22.3196 0.982107 21.9272 1.09249 21.5588C1.09252 21.5587 1.09246 21.5589 1.09249 21.5588L5.32839 7.41418C5.41291 7.12188 5.56426 6.8532 5.77051 6.62939C5.97457 6.40796 6.22679 6.23652 6.5076 6.12825C7.75546 5.6171 9.04577 5.21644 10.3637 4.93089C10.8461 4.8258 11.3504 4.9017 11.7805 5.14422C12.2113 5.3871 12.5375 5.78009 12.697 6.24818L12.7 6.25685L13.6874 9.24437C13.8608 9.76875 13.5762 10.3344 13.0518 10.5077C12.5274 10.681 11.9618 10.3964 11.7885 9.87205L10.8036 6.89237C10.8025 6.88985 10.8006 6.88774 10.7982 6.88638Z" fill="#858584"/>
</svg>
