<svg width="32" height="33" viewBox="0 0 32 33" fill="none" xmlns="http://www.w3.org/2000/svg">
<path fill-rule="evenodd" clip-rule="evenodd" d="M16 12.334C13.7909 12.334 12 14.1248 12 16.334C12 18.5431 13.7909 20.334 16 20.334C18.2091 20.334 20 18.5431 20 16.334C20 14.1248 18.2091 12.334 16 12.334ZM10 16.334C10 13.0203 12.6863 10.334 16 10.334C19.3137 10.334 22 13.0203 22 16.334C22 19.6477 19.3137 22.334 16 22.334C12.6863 22.334 10 19.6477 10 16.334Z" fill="#858584"/>
<path fill-rule="evenodd" clip-rule="evenodd" d="M10.5 5.83398C7.73858 5.83398 5.5 8.07256 5.5 10.834V21.834C5.5 24.5954 7.73858 26.834 10.5 26.834H21.5C24.2614 26.834 26.5 24.5954 26.5 21.834V10.834C26.5 8.07256 24.2614 5.83398 21.5 5.83398H10.5ZM3.5 10.834C3.5 6.96799 6.63401 3.83398 10.5 3.83398H21.5C25.366 3.83398 28.5 6.96799 28.5 10.834V21.834C28.5 25.7 25.366 28.834 21.5 28.834H10.5C6.63401 28.834 3.5 25.7 3.5 21.834V10.834Z" fill="#858584"/>
<path d="M22.5 11.334C23.3284 11.334 24 10.6624 24 9.83398C24 9.00556 23.3284 8.33398 22.5 8.33398C21.6716 8.33398 21 9.00556 21 9.83398C21 10.6624 21.6716 11.334 22.5 11.334Z" fill="#858584"/>
</svg>
