<svg xmlns="http://www.w3.org/2000/svg" viewBox="0 0 54.5 18.8"><defs><style>.cls-1{fill:#5b55ff;}</style></defs><title>lgAtivo 1</title><g id="Camada_2" data-name="Camada 2"><g id="Camada_1-2" data-name="Camada 1"><path class="cls-1" d="M9.1,0c-.8,3-1.8,6.1-3,9.4s-2.5,6.5-3.8,9.4A70,70,0,0,0,9.7,13c1.2-1.1,2.3-2.1,3.3-3.1a8,8,0,0,1-4,4.8,9.47,9.47,0,0,1,2.9.7,10.09,10.09,0,0,1,4.3,3.4,25.89,25.89,0,0,0-1.4-4.5,6.38,6.38,0,0,0-.8-1.4,27.89,27.89,0,0,1,5.2-9,27.38,27.38,0,0,0-8.7,4.6,34.65,34.65,0,0,0-3.4,3.2,10.31,10.31,0,0,1,4.1-5.1A15.51,15.51,0,0,1,9.1,0Z"/><path class="cls-1" d="M0,6.8a12.2,12.2,0,0,1,4.8,3.9,11.66,11.66,0,0,0,1-2.6c.1-.4.2-.7.3-1.1L3.2,6.7C2.2,6.7,1.1,6.7,0,6.8Z"/><path class="cls-1" d="M22.7,9.2a.55.55,0,0,0-.3-.5,1.45,1.45,0,0,0-.7-.2.75.75,0,0,0-.5.1c-.1.1-.2.1-.3.2a.5.5,0,0,0,0,.6c0,.1.1.1.2.2a.37.37,0,0,0,.3.1c.1,0,.2.1.4.1l.5.1c.2.1.5.1.7.2a2.19,2.19,0,0,1,.5.3,1,1,0,0,1,.4.5,1.27,1.27,0,0,1,.1.6,1.22,1.22,0,0,1-.3.9,1.24,1.24,0,0,1-.8.6,1.59,1.59,0,0,1-1.2.4,3.73,3.73,0,0,1-1.2-.2,2.41,2.41,0,0,1-.8-.6,1.69,1.69,0,0,1-.3-1h1.2a.76.76,0,0,0,.2.5,1.38,1.38,0,0,0,.4.3,1.27,1.27,0,0,0,.6.1.75.75,0,0,0,.5-.1c.2-.1.3-.1.4-.2s.1-.2.1-.4a.37.37,0,0,0-.1-.3c-.1-.1-.2-.2-.3-.2s-.3-.1-.5-.2l-.6-.2a1.68,1.68,0,0,1-1.1-.6,1.16,1.16,0,0,1-.4-1,1.61,1.61,0,0,1,.3-.9,1.24,1.24,0,0,1,.8-.6,3.13,3.13,0,0,1,2.2,0,1.06,1.06,0,0,1,.7.6,1.61,1.61,0,0,1,.3.9H22.7ZM27,9v.9H24.4V9ZM25,8h1.2v4a.37.37,0,0,0,.1.3.1.1,0,0,0,.1.1h.5l.2.9c-.1,0-.1,0-.3.1h-.4a2.2,2.2,0,0,1-.8-.1,1,1,0,0,1-.5-.4,1.45,1.45,0,0,1-.2-.7V8Zm4,5.4a1.48,1.48,0,0,1-.7-.1,1,1,0,0,1-.5-.4,1.45,1.45,0,0,1-.2-.7,1.27,1.27,0,0,1,.1-.6.78.78,0,0,1,.4-.4c.2-.1.3-.2.5-.2a1.27,1.27,0,0,1,.6-.1c.2,0,.5-.1.6-.1a.44.44,0,0,0,.3-.1c.1,0,.1-.1.1-.2h0a.52.52,0,0,0-.2-.4,1.3,1.3,0,0,0-1,0,1.38,1.38,0,0,0-.3.4l-1-.3a4.88,4.88,0,0,1,.3-.7,2.09,2.09,0,0,1,.6-.4,2.92,2.92,0,0,1,.9-.2,1.7,1.7,0,0,1,.7.1c.2.1.4.1.6.3a1,1,0,0,1,.4.5,1.48,1.48,0,0,1,.1.7v2.9H30.2v-.6h0c-.1.1-.2.3-.3.4a.76.76,0,0,1-.4.2Zm.4-.8a.9.9,0,0,0,.5-.1l.3-.3a.6.6,0,0,0,.1-.4v-.5a.31.31,0,0,0-.2.1c-.1,0-.1,0-.2.1h-.4c-.1,0-.3.1-.4.1a.22.22,0,0,0-.2.2.37.37,0,0,0-.1.3.52.52,0,0,0,.2.4A1,1,0,0,0,29.4,12.6Zm3,.7V9h1.2v.7h0a.92.92,0,0,1,.4-.6,1.42,1.42,0,0,1,.6-.2H35V10h-.5a.9.9,0,0,0-.5.1c-.1.1-.3.2-.3.3a.75.75,0,0,0-.1.5v2.4Zm3.2,0V7.6h1.2v4.7h2.5v1Zm4.4,0V9h1.2v4.3Zm.6-4.8c-.2,0-.3-.1-.5-.2a.76.76,0,0,1-.2-.4.52.52,0,0,1,.2-.4.76.76,0,0,1,.5-.2c.2,0,.3.1.5.2a.76.76,0,0,1,.2.4.52.52,0,0,1-.2.4A.76.76,0,0,1,40.6,8.5ZM44.1,15a3,3,0,0,1-1-.2,1.61,1.61,0,0,1-.7-.4.86.86,0,0,1-.3-.6l1.1-.1a.22.22,0,0,0,.2.2c.1.1.2.1.3.2s.3.1.4.1a.85.85,0,0,0,.6-.2.6.6,0,0,0,.3-.6v-.8h-.1c-.1.1-.1.2-.2.3a1.38,1.38,0,0,1-.4.3,1.27,1.27,0,0,1-.6.1,2.92,2.92,0,0,1-.9-.2,1.34,1.34,0,0,1-.6-.7,2.17,2.17,0,0,1-.2-1.2,3.73,3.73,0,0,1,.2-1.2,2.17,2.17,0,0,1,.6-.7,1.49,1.49,0,0,1,.9-.2,1.27,1.27,0,0,1,.6.1,1.38,1.38,0,0,1,.4.3.52.52,0,0,1,.2.4h0V9.2h1.2v4.2a1.22,1.22,0,0,1-.3.9,4.35,4.35,0,0,1-.7.6C44.9,14.9,44.5,15,44.1,15Zm0-2.6a.75.75,0,0,0,.5-.1,1.38,1.38,0,0,0,.3-.4,1.27,1.27,0,0,0,.1-.6,1.48,1.48,0,0,0-.1-.7,1.38,1.38,0,0,0-.3-.4.73.73,0,0,0-1,0,1.38,1.38,0,0,0-.3.4,1.27,1.27,0,0,0-.1.6c0,.2,0,.5.1.6a1.38,1.38,0,0,0,.3.4C43.8,12.3,43.9,12.4,44.1,12.4Zm4.3-1.6v2.5H47.2V7.6h1.2V9.8h.1a1,1,0,0,1,.5-.6,1.7,1.7,0,0,1,1.6,0,1,1,0,0,1,.5.6,2,2,0,0,1,.2.9v2.7H50.1V10.9a.71.71,0,0,0-.8-.8c-.2,0-.3,0-.4.1l-.3.3C48.4,10.5,48.4,10.6,48.4,10.8Zm6-1.8v.9H51.8V9Zm-2-1h1.2v4a.37.37,0,0,0,.1.3.1.1,0,0,0,.1.1h.5l.2.9c-.1,0-.1,0-.3.1h-.4a2.2,2.2,0,0,1-.8-.1,1,1,0,0,1-.5-.4,1.45,1.45,0,0,1-.2-.7V8Z"/></g></g></svg>