<svg width="32" height="33" viewBox="0 0 32 33" fill="none" xmlns="http://www.w3.org/2000/svg">
<path d="M15.9997 11.3344C15.9997 8.58444 18.3122 6.29694 21.0622 6.33444C22.0253 6.34556 22.9646 6.63459 23.7673 7.16678C24.5701 7.69898 25.202 8.45169 25.5872 9.33444H29.9997L25.9622 13.3719C25.7016 17.4277 23.9063 21.2319 20.9412 24.0113C17.9761 26.7906 14.0638 28.3364 9.9997 28.3344C5.9997 28.3344 4.9997 26.8344 4.9997 26.8344C4.9997 26.8344 8.9997 25.3344 10.9997 22.3344C10.9997 22.3344 2.9997 18.3344 4.9997 7.33444C4.9997 7.33444 9.9997 12.3344 15.9997 13.3344V11.3344Z" stroke="#858584" stroke-width="2" stroke-linecap="round" stroke-linejoin="round"/>
</svg>
