<svg width="32" height="33" viewBox="0 0 32 33" fill="none" xmlns="http://www.w3.org/2000/svg">
<path fill-rule="evenodd" clip-rule="evenodd" d="M13.5281 11.4523C13.8533 11.2783 14.2478 11.2974 14.5547 11.5019L20.5547 15.5019C20.8329 15.6874 21 15.9996 21 16.334C21 16.6683 20.8329 16.9806 20.5547 17.166L14.5547 21.166C14.2478 21.3706 13.8533 21.3897 13.5281 21.2157C13.203 21.0416 13 20.7028 13 20.334V12.334C13 11.9652 13.203 11.6263 13.5281 11.4523ZM15 14.2025V18.4655L18.1972 16.334L15 14.2025Z" fill="#858584"/>
<path fill-rule="evenodd" clip-rule="evenodd" d="M15.9985 5.38481L15.9816 5.38477L15.9188 5.38479C15.8643 5.38492 15.785 5.38531 15.6831 5.38639C15.4794 5.38855 15.1856 5.39346 14.8206 5.40441C14.0912 5.42631 13.0746 5.47245 11.9237 5.56962C9.64733 5.76181 6.74928 6.16067 4.51808 7.01319L4.50338 7.01894C4.06511 7.19437 3.6742 7.47035 3.36218 7.82462C3.05016 8.17889 2.82577 8.60153 2.70711 9.05846L2.70614 9.06222C2.39473 10.2808 2 12.5405 2 16.3348C2 20.1292 2.39473 22.3889 2.70614 23.6074L2.70711 23.6112C2.82577 24.0681 3.05016 24.4908 3.36218 24.845C3.6742 25.1993 4.06511 25.4753 4.50338 25.6507L4.51808 25.6565C6.74928 26.509 9.64733 26.9078 11.9237 27.1C13.0746 27.1972 14.0912 27.2433 14.8206 27.2652C15.1856 27.2762 15.4794 27.2811 15.6831 27.2833C15.785 27.2843 15.8643 27.2847 15.9188 27.2849L15.9816 27.2849L15.9985 27.2848H16.0015L16.0184 27.2849L16.0812 27.2849C16.1357 27.2847 16.215 27.2843 16.3169 27.2833C16.5206 27.2811 16.8144 27.2762 17.1794 27.2652C17.9088 27.2433 18.9254 27.1972 20.0763 27.1C22.3527 26.9078 25.2507 26.509 27.4819 25.6565L27.4966 25.6507C27.9349 25.4753 28.3258 25.1993 28.6378 24.845C28.9498 24.4908 29.1742 24.0681 29.2929 23.6112L29.2939 23.6074C29.6053 22.3889 30 20.1292 30 16.3348C30 12.5405 29.6053 10.2808 29.2939 9.06222L29.2929 9.05846C29.1742 8.60153 28.9498 8.17889 28.6378 7.82462C28.3258 7.47035 27.9349 7.19437 27.4966 7.01894L27.4819 7.01319C25.2507 6.16067 22.3527 5.76181 20.0763 5.56962C18.9254 5.47245 17.9088 5.42631 17.1794 5.40441C16.8144 5.39346 16.5206 5.38855 16.3169 5.38639C16.215 5.38531 16.1357 5.38492 16.0812 5.38479L16.0184 5.38477L16.0015 5.38481H15.9985ZM15.9947 25.2848L16.0054 25.2848L16.0086 25.2849L16.0217 25.2849L16.0767 25.2849C16.1259 25.2847 16.1996 25.2844 16.2957 25.2834C16.4877 25.2813 16.7686 25.2767 17.1194 25.2661C17.8216 25.2451 18.8011 25.2006 19.9081 25.1071C22.1441 24.9183 24.8041 24.5368 26.7596 23.7914C26.9044 23.7323 27.0336 23.6405 27.1369 23.5231C27.2414 23.4045 27.3167 23.263 27.3567 23.11C27.6203 22.0778 28 19.9879 28 16.3348C28 12.6818 27.6203 10.5918 27.3567 9.5596C27.3167 9.40664 27.2414 9.26516 27.1369 9.1465C27.0336 9.02911 26.9044 8.93729 26.7596 8.87822C24.8041 8.13287 22.1441 7.75131 19.9081 7.56253C18.8011 7.46907 17.8216 7.42459 17.1194 7.40351C16.7686 7.39298 16.4877 7.38832 16.2957 7.38628C16.1996 7.38526 16.1259 7.3849 16.0767 7.38479L16.0217 7.38476L16.0086 7.3848L16.0058 7.38481L15.9946 7.38487L15.9914 7.3848L15.9783 7.38476L15.9233 7.38479C15.8741 7.3849 15.8004 7.38526 15.7043 7.38628C15.5123 7.38832 15.2314 7.39298 14.8806 7.40351C14.1784 7.42459 13.1989 7.46907 12.0919 7.56253C9.8559 7.75131 7.1959 8.13287 5.24039 8.87823C5.09561 8.9373 4.96645 9.02911 4.86306 9.1465C4.75855 9.26516 4.6833 9.40664 4.64331 9.5596C4.37974 10.5918 4 12.6818 4 16.3348C4 19.9879 4.37973 22.0778 4.6433 23.11C4.68329 23.263 4.75855 23.4045 4.86306 23.5231C4.96645 23.6405 5.09561 23.7323 5.24038 23.7914C7.1959 24.5368 9.8559 24.9183 12.0919 25.1071C13.1989 25.2006 14.1784 25.2451 14.8806 25.2661C15.2314 25.2767 15.5123 25.2813 15.7043 25.2834C15.8004 25.2844 15.8741 25.2847 15.9233 25.2849L15.9783 25.2849L15.9914 25.2849L15.9947 25.2848Z" fill="#858584"/>
</svg>
